<svg xmlns="http://www.w3.org/2000/svg" xmlns:xlink="http://www.w3.org/1999/xlink" viewBox="0 0 143 143"><defs><linearGradient id="prefix__New_Gradient_Swatch" x1="93.43" y1=".43" x2="93.43" y2="140.61" gradientUnits="userSpaceOnUse"><stop offset="0" stop-color="#29b8db"/><stop offset="1" stop-color="#A760FF"/></linearGradient><mask id="prefix__mask" x="83.38" y="47.43" width="20" height="49" maskUnits="userSpaceOnUse"><image width="20" height="49" transform="translate(83.38 47.43)"/></mask><clipPath id="prefix__clip-path"><path d="M137.89 64.4c3.89 3.89 3.53 10.53-.35 14.41l-59 59a10.12 10.12 0 01-14.21.15L5.17 78.75A10.49 10.49 0 015 64.25l59-59a10.73 10.73 0 0114.7-.06z" fill="none"/></clipPath><filter id="prefix__luminosity-invert" filterUnits="userSpaceOnUse" color-interpolation-filters="sRGB"><feColorMatrix values="-1 0 0 0 1 0 -1 0 0 1 0 0 -1 0 1 0 0 0 1 0"/></filter></defs><g id="prefix__Layer_2" data-name="Layer 2"><g clip-path="url(#prefix__clip-path)" id="prefix__Layer_2-2" data-name="Layer 2"><path d="M90.8 62.06a9.59 9.59 0 01-4.9 8.46v23.63l11-11a10.56 10.56 0 01-.11-1.79c0-3.27 1.12-6.16 4.13-7.94V49.93L90.67 60.16a9.89 9.89 0 01.13 1.9z" fill="url(#prefix__New_Gradient_Swatch)"/><g mask="url(#prefix__mask)"></g><path d="M30.7 99V70.53c-3-1.78-4.14-4.67-4.14-7.94A9.7 9.7 0 0137.83 53l14.34-14.4a9.61 9.61 0 01-.17-1.79A9.79 9.79 0 0161.77 27a9.24 9.24 0 018.3 4.58h27.75a7.2 7.2 0 013.71-3.58L74.93 1.4a4.8 4.8 0 00-6.77 0L1.4 68.17a4.79 4.79 0 000 6.77l26.65 26.58A10.16 10.16 0 0130.7 99z" fill="url(#prefix__New_Gradient_Swatch)"/><g mask="url(#prefix__mask)"></g><path d="M81 52.05a10.43 10.43 0 012-.14l10-10.27H69.7a8.89 8.89 0 01-7.93 4.51 9.62 9.62 0 01-2-.23L49 56.68h23.58A9.38 9.38 0 0181 52.05z" fill="url(#prefix__New_Gradient_Swatch)"/><g mask="url(#prefix__mask)"></g><path d="M72.66 100.86c.65-1 1.2-1 2.21-1.68V69.79c0-.51-1-1.05-1.55-2.06H44.38a15.93 15.93 0 01-2.65 3.16V99c1 .71 1.66.86 2.38 1.86z" fill="url(#prefix__New_Gradient_Swatch)"/><g mask="url(#prefix__mask)"></g><path d="M141.71 68.2l-27.25-26.89a6.57 6.57 0 01-3.46 3.37V73c4 1.73 5 4.8 5 8.3a9.6 9.6 0 01-9.58 9.77 8.71 8.71 0 01-1.93-.21L90.3 105.1a9.62 9.62 0 01.23 2 9.49 9.49 0 01-9.76 9.45 9.17 9.17 0 01-8.11-4.67H44.12a11.41 11.41 0 01-2.53 2.91l26.6 26.76a4.8 4.8 0 006.77.09l66.76-66.72a4.75 4.75 0 00-.01-6.72z" fill="url(#prefix__New_Gradient_Swatch)"/><g mask="url(#prefix__mask)"></g><path d="M44.12 111.89h28.54a9.19 9.19 0 008.13 4.67 9.64 9.64 0 009.77-9.56 9.53 9.53 0 00-.21-1.94l14.2-14.16a9.54 9.54 0 002 .23 9.45 9.45 0 009.4-9.76c0-3.5-1-6.56-5-8.29v-28.4a6.57 6.57 0 003.47-3.37L101.35 28a6.94 6.94 0 00-3.53 3.62H70.07a9.24 9.24 0 00-8.3-4.62A9.77 9.77 0 0052 36.79a8.87 8.87 0 00.16 1.8L37.82 52.94a10.09 10.09 0 00-1.57-.12 9.71 9.71 0 00-9.7 9.77c0 3.27 1.13 6.16 4.14 7.94V99a10 10 0 00-2.65 2.54l13.58 13.26a11.11 11.11 0 002.5-2.91zm56.83-62V73.4c-3 1.78-4.12 4.67-4.12 7.94a9.62 9.62 0 00.17 1.79l-11.06 11V70.52a9.59 9.59 0 004.9-8.46 9.89 9.89 0 00-.13-1.9zm-41.2-3.8a9.94 9.94 0 002-.11 8.78 8.78 0 007.93-4.39h23.23L83 52a9.24 9.24 0 00-2-.17 9.56 9.56 0 00-8.46 4.86H49zM41.74 99V70.89a15.93 15.93 0 002.65-3.16h28.92c.51 1 1.55 1.55 1.55 2.06v29.39c-1 .69-1.56.67-2.21 1.68H44.12c-.72-1.01-1.38-1.16-2.38-1.86z" fill="#fff"/></g></g></svg>